<svg width="248" height="161" viewBox="0 0 248 161" fill="none" xmlns="http://www.w3.org/2000/svg">
  <g id="Illustration" opacity="0.5">
    <g id="Shape">
      <path id="Triangle" opacity="0.05" fill-rule="evenodd" clip-rule="evenodd"
            d="M217.749 5.54049C218.371 4.58215 219.774 4.58215 220.396 5.54049L245.679 44.4861C246.36 45.5359 245.607 46.9233 244.355 46.9233H193.789C192.537 46.9233 191.784 45.5359 192.465 44.4861L217.749 5.54049Z"
            fill="#B9B9C3"/>
      <path id="Triangle_2" opacity="0.05" fill-rule="evenodd" clip-rule="evenodd"
            d="M33.5551 73.8387C34.1767 72.8761 35.5848 72.8761 36.2064 73.8387L67.4511 122.228C68.1291 123.278 67.3753 124.662 66.1254 124.662H3.63602C2.38614 124.662 1.63238 123.278 2.31037 122.228L33.5551 73.8387Z"
            fill="#B9B9C3"/>
      <path id="Triangle_3" opacity="0.25" fill-rule="evenodd" clip-rule="evenodd"
            d="M155.59 65.4401C156.211 64.4757 157.621 64.4757 158.243 65.4401L209.276 144.64C209.952 145.69 209.198 147.073 207.949 147.073H105.883C104.634 147.073 103.88 145.69 104.557 144.64L155.59 65.4401Z"
            fill="#30619A"/>
      <path id="Triangle_4" opacity="0.25" fill-rule="evenodd" clip-rule="evenodd"
            d="M205.633 2.29452C206.244 1.26214 207.738 1.26214 208.349 2.29452L225.892 31.9354C226.514 32.9873 225.756 34.3171 224.534 34.3171H189.449C188.226 34.3171 187.468 32.9873 188.091 31.9354L205.633 2.29452Z"
            fill="#979797" fill-opacity="0.5"/>
      <path id="Triangle_5" opacity="0.25" fill-rule="evenodd" clip-rule="evenodd"
            d="M61.5653 4.37433C62.1859 3.40414 63.6032 3.40414 64.2238 4.37433L76.5737 23.6799C77.2456 24.7302 76.4913 26.1082 75.2444 26.1082H50.5447C49.2978 26.1082 48.5435 24.7302 49.2154 23.6799L61.5653 4.37433Z"
            fill="#30619A"/>
    </g>
    <g id="Finance Presentation">
      <g id="DesktopDasboard">
        <path id="Rectangle" fill-rule="evenodd" clip-rule="evenodd"
              d="M34.0054 26.7249C34.0054 21.2481 38.4451 16.8083 43.9219 16.8083H203.66C209.137 16.8083 213.577 21.2481 213.577 26.7248V124.475C213.577 129.951 209.137 134.391 203.66 134.391H43.9219C38.4451 134.391 34.0054 129.951 34.0054 124.475V26.7249Z"
              fill="#F2F2F2"/>
        <g id="ElementCard11">
          <g id="Rectangle_2" filter="url(#filter0_d_215_12739)">
            <path fill-rule="evenodd" clip-rule="evenodd"
                  d="M84.0918 37.9267C84.0918 36.296 85.4137 34.9741 87.0444 34.9741H152.343C153.973 34.9741 155.295 36.2961 155.295 37.9267V80.9672C155.295 82.5979 153.974 83.9198 152.343 83.9198H87.0444C85.4137 83.9198 84.0918 82.5979 84.0918 80.9672V37.9267Z"
                  fill="url(#paint0_linear_215_12739)"/>
          </g>
          <g id="Group 12">
            <path id="Path" opacity="0.39488" fill-rule="evenodd" clip-rule="evenodd"
                  d="M102.873 53.1945C103.199 53.1945 103.463 53.4589 103.463 53.785V64.2529C103.463 64.579 103.199 64.8434 102.873 64.8434H100.598C100.272 64.8434 100.008 64.579 100.008 64.2529V53.785C100.008 53.4589 100.272 53.1945 100.598 53.1945H102.873Z"
                  fill="white"/>
            <path id="Path_2" fill-rule="evenodd" clip-rule="evenodd"
                  d="M97.4278 57.5871C97.754 57.5871 98.0183 57.8515 98.0183 58.1776V64.2529C98.0183 64.5791 97.754 64.8434 97.4278 64.8434H95.1534C94.8272 64.8434 94.5629 64.5791 94.5629 64.2529V58.1776C94.5629 57.8515 94.8272 57.5871 95.1534 57.5871H97.4278Z"
                  fill="white"/>
            <path id="Path_3" fill-rule="evenodd" clip-rule="evenodd"
                  d="M108.318 49.0112C108.644 49.0112 108.908 49.2755 108.908 49.6017V64.2529C108.908 64.5791 108.644 64.8435 108.318 64.8435H106.043C105.717 64.8435 105.453 64.5791 105.453 64.2529V49.6017C105.453 49.2755 105.717 49.0112 106.043 49.0112H108.318Z"
                  fill="white"/>
            <path id="Path_4" opacity="0.39488" fill-rule="evenodd" clip-rule="evenodd"
                  d="M113.763 51.1028C114.089 51.1028 114.353 51.3672 114.353 51.6933V64.2529C114.353 64.579 114.089 64.8434 113.763 64.8434H111.488C111.162 64.8434 110.898 64.579 110.898 64.2529V51.6933C110.898 51.3672 111.162 51.1028 111.488 51.1028H113.763Z"
                  fill="white"/>
            <path id="Path_5" fill-rule="evenodd" clip-rule="evenodd"
                  d="M119.208 55.2862C119.534 55.2862 119.798 55.5506 119.798 55.8768V64.2529C119.798 64.5791 119.534 64.8435 119.208 64.8435H116.933C116.607 64.8435 116.343 64.5791 116.343 64.2529V55.8768C116.343 55.5506 116.607 55.2862 116.933 55.2862H119.208Z"
                  fill="white"/>
            <path id="Path_6" opacity="0.39488" fill-rule="evenodd" clip-rule="evenodd"
                  d="M124.653 64.6988C124.979 64.6988 125.243 64.9632 125.243 65.2894V71.5738C125.243 71.9 124.979 72.1644 124.653 72.1644H122.378C122.052 72.1644 121.788 71.9 121.788 71.5738V65.2894C121.788 64.9632 122.052 64.6988 122.378 64.6988H124.653Z"
                  fill="white"/>
            <path id="Path_7" fill-rule="evenodd" clip-rule="evenodd"
                  d="M130.098 64.6988C130.424 64.6988 130.688 64.9632 130.688 65.2894V77.4306C130.688 77.7567 130.424 78.0211 130.098 78.0211H127.823C127.497 78.0211 127.233 77.7567 127.233 77.4306V65.2894C127.233 64.9632 127.497 64.6988 127.823 64.6988H130.098Z"
                  fill="white"/>
            <path id="Path_8" opacity="0.39488" fill-rule="evenodd" clip-rule="evenodd"
                  d="M135.543 64.6988C135.869 64.6988 136.133 64.9632 136.133 65.2894V74.293C136.133 74.6192 135.869 74.8836 135.543 74.8836H133.268C132.942 74.8836 132.678 74.6192 132.678 74.293V65.2894C132.678 64.9632 132.942 64.6988 133.268 64.6988H135.543Z"
                  fill="white"/>
            <path id="Path_9" fill-rule="evenodd" clip-rule="evenodd"
                  d="M140.988 64.6988C141.314 64.6988 141.578 64.9632 141.578 65.2894V76.3847C141.578 76.7109 141.314 76.9753 140.988 76.9753H138.713C138.387 76.9753 138.123 76.7109 138.123 76.3847V65.2894C138.123 64.9632 138.387 64.6988 138.713 64.6988H140.988Z"
                  fill="white"/>
            <path id="Path_10" opacity="0.39488" fill-rule="evenodd" clip-rule="evenodd"
                  d="M146.433 64.6988C146.759 64.6988 147.023 64.9632 147.023 65.2894V71.5738C147.023 71.9 146.759 72.1644 146.433 72.1644H144.158C143.832 72.1644 143.568 71.9 143.568 71.5738V65.2894C143.568 64.9632 143.832 64.6988 144.158 64.6988H146.433Z"
                  fill="white"/>
          </g>
          <path id="Rectangle_3" opacity="0.39488" fill-rule="evenodd" clip-rule="evenodd"
                d="M92.6781 43.9684C92.6781 43.6219 92.959 43.3409 93.3056 43.3409H114.249C114.596 43.3409 114.877 43.6219 114.877 43.9684C114.877 44.315 114.596 44.5959 114.249 44.5959H93.3056C92.959 44.5959 92.6781 44.315 92.6781 43.9684Z"
                fill="white"/>
          <rect id="Rectangle_4" x="92.6781" y="39.785" width="11.7277" height="1.25502" rx="0.627508" fill="white"/>
        </g>
        <path id="Rectangle_5" fill-rule="evenodd" clip-rule="evenodd"
              d="M34.0054 26.7249C34.0054 21.2481 38.4451 16.8083 43.9219 16.8083H60.9562C66.4329 16.8083 70.8727 21.2481 70.8727 26.7248V134.391H43.9219C38.4451 134.391 34.0054 129.951 34.0054 124.475V26.7249Z"
              fill="#E4E4E4"/>
        <path id="Rectangle_6" fill-rule="evenodd" clip-rule="evenodd"
              d="M38.4824 34.9903C38.4824 33.9009 39.3655 33.0178 40.4549 33.0178L63.9315 33.0178C65.0209 33.0178 65.904 33.9009 65.904 34.9903V36.0759C65.904 37.1652 65.0209 38.0484 63.9315 38.0484H40.4549C39.3655 38.0484 38.4824 37.1652 38.4824 36.0759V34.9903Z"
              fill="white" fill-opacity="0.423924"/>
        <path id="Rectangle_7" fill-rule="evenodd" clip-rule="evenodd"
              d="M38.4824 44.213C38.4824 43.1236 39.3655 42.2405 40.4549 42.2405L52.739 42.2405C53.8284 42.2405 54.7115 43.1236 54.7115 44.213V45.2985C54.7115 46.3879 53.8284 47.271 52.739 47.271H40.4549C39.3655 47.271 38.4824 46.3879 38.4824 45.2985V44.213Z"
              fill="white" fill-opacity="0.204873"/>
        <path id="Rectangle_8" fill-rule="evenodd" clip-rule="evenodd"
              d="M38.4824 52.5972C38.4824 51.5078 39.3655 50.6247 40.4549 50.6247L52.739 50.6247C53.8284 50.6247 54.7115 51.5078 54.7115 52.5972V53.6827C54.7115 54.7721 53.8284 55.6552 52.739 55.6552H40.4549C39.3655 55.6552 38.4824 54.7721 38.4824 53.6827V52.5972Z"
              fill="white" fill-opacity="0.204873"/>
        <path id="Rectangle_9" fill-rule="evenodd" clip-rule="evenodd"
              d="M165.517 16.8083H203.66C209.137 16.8083 213.577 21.2481 213.577 26.7248V124.475C213.577 129.951 209.137 134.391 203.66 134.391H165.517V16.8083Z"
              fill="#E4E4E4"/>
        <g id="Group 23">
          <g id="Rectangle_10" filter="url(#filter1_d_215_12739)">
            <path fill-rule="evenodd" clip-rule="evenodd"
                  d="M173.647 37.2579C173.638 35.073 175.407 33.2973 177.592 33.2973H203.112C205.284 33.2973 207.048 35.054 207.057 37.2267L207.193 71.8167C207.202 74.0016 205.433 75.7773 203.248 75.7773H177.729C175.556 75.7773 173.792 74.0206 173.784 71.8479L173.647 37.2579Z"
                  fill="white"/>
          </g>
          <path id="Rectangle_11" opacity="0.33996"
                d="M184.264 60.4063C184.264 59.9432 184.64 59.5678 185.103 59.5678H195.738C196.201 59.5678 196.576 59.9432 196.576 60.4063C196.576 60.8693 196.201 61.2447 195.738 61.2447H185.103C184.64 61.2447 184.264 60.8693 184.264 60.4063Z"
                fill="#30619A"/>
          <path id="Rectangle_12" opacity="0.33996"
                d="M181.466 64.8778C181.466 64.4148 181.842 64.0394 182.305 64.0394H198.536C198.999 64.0394 199.374 64.4148 199.374 64.8778C199.374 65.3409 198.999 65.7163 198.536 65.7163H182.305C181.842 65.7163 181.466 65.3409 181.466 64.8778Z"
                fill="#30619A"/>
          <g id="Icon8">
            <g id="Oval" filter="url(#filter2_d_215_12739)">
              <ellipse cx="190.441" cy="46.8763" rx="6.45665" ry="6.59215" fill="white"/>
            </g>
            <g id="Group 70">
              <path id="Combined Shape" fill-rule="evenodd" clip-rule="evenodd"
                    d="M190.563 46.6577C191.475 46.6577 192.215 45.9191 192.215 45.008C192.215 44.0969 191.475 43.3584 190.563 43.3584C189.651 43.3584 188.911 44.0969 188.911 45.008C188.911 45.9191 189.651 46.6577 190.563 46.6577ZM190.369 47.1248C189.007 47.1248 187.902 48.2295 187.902 49.5922C187.902 49.748 188.028 49.8742 188.184 49.8742H192.942C193.098 49.8742 193.224 49.748 193.224 49.5922C193.224 48.2295 192.119 47.1248 190.757 47.1248H190.369Z"
                    fill="#30619A"/>
            </g>
          </g>
        </g>
        <path id="Rectangle_13" fill-rule="evenodd" clip-rule="evenodd"
              d="M172.792 101.785C172.792 100.695 173.675 99.8121 174.765 99.8121H206.076C207.165 99.8121 208.048 100.695 208.048 101.785V125.228C208.048 126.317 207.165 127.201 206.076 127.201H174.765C173.675 127.201 172.792 126.317 172.792 125.228V101.785Z"
              fill="white" fill-opacity="0.345908"/>
        <path id="Rectangle_14" fill-rule="evenodd" clip-rule="evenodd"
              d="M34.0054 26.5143C34.0054 21.1539 38.3509 16.8083 43.7114 16.8083H203.871C209.231 16.8083 213.577 21.1539 213.577 26.5143H34.0054Z"
              fill="#D4D4D4"/>
        <ellipse id="Oval_2" cx="41.2805" cy="21.5594" rx="1.11925" ry="1.1179" fill="#F5818D"/>
        <ellipse id="Oval_3" cx="45.7576" cy="21.5594" rx="1.11925" ry="1.1179" fill="#FFBD63"/>
        <ellipse id="Oval_4" cx="50.5144" cy="21.5594" rx="1.11925" ry="1.1179" fill="#4CE47A"/>
      </g>
      <g id="ElementCard25">
        <g id="Rectangle_15" filter="url(#filter3_d_215_12739)">
          <path fill-rule="evenodd" clip-rule="evenodd"
                d="M84.7806 92.3568C84.7806 91.0523 85.8382 89.9947 87.1427 89.9947H127.204C128.508 89.9947 129.566 91.0523 129.566 92.3568V104.238C129.566 105.543 128.508 106.6 127.204 106.6H87.1427C85.8382 106.6 84.7806 105.543 84.7806 104.238V92.3568Z"
                fill="white"/>
        </g>
        <path id="Rectangle_16" opacity="0.2" fill-rule="evenodd" clip-rule="evenodd"
              d="M99.3735 99.7233C99.3735 99.4454 99.5988 99.2201 99.8767 99.2201H108.263C108.541 99.2201 108.767 99.4454 108.767 99.7233C108.767 100.001 108.541 100.226 108.263 100.226H99.8767C99.5988 100.226 99.3735 100.001 99.3735 99.7233Z"
              fill="#30619A"/>
        <path id="Rectangle_17" opacity="0.5" fill-rule="evenodd" clip-rule="evenodd"
              d="M99.3735 96.8718C99.3735 96.5939 99.5988 96.3686 99.8767 96.3686H104.909C105.187 96.3686 105.412 96.5939 105.412 96.8718C105.412 97.1497 105.187 97.375 104.909 97.375H99.8767C99.5988 97.375 99.3735 97.1497 99.3735 96.8718Z"
              fill="#30619A"/>
        <path id="Path_11"
              d="M115.854 96.4146C115.998 96.0984 116.371 95.9589 116.687 96.103C116.792 96.1506 116.881 96.2259 116.946 96.3203L116.969 96.3565L118.202 98.4544C118.214 98.4743 118.24 98.481 118.26 98.4693L118.265 98.4655L118.27 98.4609L118.926 97.7188C119.156 97.4586 119.554 97.4342 119.814 97.6644C119.831 97.6795 119.848 97.6955 119.863 97.7124L119.885 97.7384L120.848 98.9205C120.862 98.9384 120.889 98.9411 120.907 98.9265L120.912 98.9217L120.916 98.9161L122.436 96.4591C122.619 96.1637 123.007 96.0724 123.302 96.2552C123.348 96.2835 123.39 96.3175 123.427 96.3564L123.454 96.3865L124.162 97.2332C124.266 97.3575 124.25 97.5426 124.125 97.6466C124.008 97.7449 123.836 97.7357 123.73 97.6296L123.712 97.6099L123.003 96.7632C123.001 96.7597 122.997 96.7568 122.993 96.7544C122.977 96.7443 122.956 96.7468 122.943 96.7593L122.936 96.768L121.415 99.225C121.378 99.2846 121.332 99.3375 121.277 99.3818C121.017 99.5935 120.639 99.563 120.416 99.3182L120.393 99.2912L119.43 98.1091C119.429 98.1073 119.427 98.1056 119.425 98.1041C119.411 98.0913 119.39 98.0903 119.375 98.1004L119.366 98.1078L118.71 98.8498C118.666 98.8994 118.614 98.9418 118.557 98.9753C118.268 99.1455 117.898 99.0578 117.715 98.7812L117.696 98.7519L116.463 96.6541C116.458 96.6467 116.452 96.6408 116.444 96.6372C116.426 96.6292 116.406 96.6343 116.394 96.6485L116.388 96.658L115.187 99.2954C115.142 99.3937 115.073 99.4786 114.986 99.5422L114.952 99.565L113.527 100.473C113.391 100.561 113.209 100.52 113.122 100.384C113.04 100.255 113.071 100.086 113.19 99.9938L113.212 99.9785L114.637 99.07C114.641 99.0671 114.645 99.0633 114.648 99.059L114.652 99.052L115.854 96.4146Z"
              fill="#30619A"/>
        <circle id="Oval_5" cx="93.0833" cy="98.4653" r="3.43854" fill="#30619A"/>
      </g>
      <g id="ElementCard26">
        <g id="Rectangle_18" filter="url(#filter4_d_215_12739)">
          <path fill-rule="evenodd" clip-rule="evenodd"
                d="M84.7806 115.118C84.7806 113.814 85.8382 112.756 87.1427 112.756H127.204C128.508 112.756 129.566 113.814 129.566 115.118V127C129.566 128.304 128.508 129.362 127.204 129.362H87.1427C85.8382 129.362 84.7806 128.304 84.7806 127V115.118Z"
                fill="white"/>
        </g>
        <path id="Rectangle_19" opacity="0.454078" fill-rule="evenodd" clip-rule="evenodd"
              d="M99.709 122.652C99.709 122.374 99.9343 122.149 100.212 122.149H108.599C108.877 122.149 109.102 122.374 109.102 122.652C109.102 122.93 108.877 123.156 108.599 123.156H100.212C99.9343 123.156 99.709 122.93 99.709 122.652Z"
              fill="#65B3A1"/>
        <path id="Rectangle_20" fill-rule="evenodd" clip-rule="evenodd"
              d="M99.709 119.801C99.709 119.523 99.9343 119.298 100.212 119.298H105.244C105.522 119.298 105.747 119.523 105.747 119.801C105.747 120.079 105.522 120.304 105.244 120.304H100.212C99.9343 120.304 99.709 120.079 99.709 119.801Z"
              fill="#65B3A1"/>
        <path id="Path 146" fill-rule="evenodd" clip-rule="evenodd"
              d="M113.463 123.084L115.129 120.16C115.39 119.702 115.976 119.546 116.43 119.814L116.7 119.974C117.036 120.172 117.458 120.144 117.764 119.903L118.4 119.404C118.715 119.157 119.152 119.135 119.49 119.35L119.722 119.497C120.235 119.823 120.925 119.582 121.268 119.081C121.539 118.685 121.908 118.3 122.363 118.172C123.413 117.878 124.755 118.172 124.755 118.172V123.084H113.463Z"
              fill="url(#paint1_linear_215_12739)"/>
        <g id="Path 146_2">
          <path fill-rule="evenodd" clip-rule="evenodd"
                d="M113.463 123.084L115.268 121.649C115.584 121.397 116.026 121.379 116.362 121.604C116.695 121.828 117.135 121.812 117.451 121.563L118.064 121.082C118.379 120.834 118.817 120.812 119.155 121.027L119.642 121.337C120.062 121.604 120.619 121.499 120.96 121.137C121.379 120.691 121.975 120.159 122.552 119.998C123.602 119.703 124.755 119.849 124.755 119.849V123.084H113.463Z"
                fill="#65B3A1"/>
          <path fill-rule="evenodd" clip-rule="evenodd"
                d="M113.463 123.084L115.268 121.649C115.584 121.397 116.026 121.379 116.362 121.604C116.695 121.828 117.135 121.812 117.451 121.563L118.064 121.082C118.379 120.834 118.817 120.812 119.155 121.027L119.642 121.337C120.062 121.604 120.619 121.499 120.96 121.137C121.379 120.691 121.975 120.159 122.552 119.998C123.602 119.703 124.755 119.849 124.755 119.849V123.084H113.463Z"
                fill="black" fill-opacity="0.2"/>
        </g>
        <circle id="Oval_6" cx="93.0833" cy="121.227" r="3.43854" fill="#65B3A1"/>
      </g>
      <g id="Icon2">
        <ellipse id="Oval_7" cx="129.516" cy="113.616" rx="5.10332" ry="5.25239" fill="#65B3A1"/>
        <path id="Path_12" fill-rule="evenodd" clip-rule="evenodd"
              d="M127.77 113.221C127.618 113.037 127.345 113.011 127.161 113.163C126.977 113.315 126.951 113.587 127.103 113.771L128.604 115.588C128.784 115.807 129.109 115.838 129.328 115.657C129.36 115.631 129.388 115.601 129.413 115.567L131.563 112.679C131.706 112.488 131.666 112.217 131.474 112.075C131.283 111.932 131.012 111.972 130.87 112.163L128.986 114.694L127.77 113.221Z"
              fill="white"/>
      </g>
      <g id="Example Paper">
        <path id="Rectangle_21" fill-rule="evenodd" clip-rule="evenodd"
              d="M167.722 77.8472L159.757 82.8241C159.757 82.8241 161.538 85.675 163.32 88.5258C165.101 91.3767 165.745 94.9385 165.745 94.9385L173.71 89.9616C173.71 89.9616 173.066 86.3997 171.285 83.5489C169.503 80.698 167.722 77.8472 167.722 77.8472Z"
              fill="#E8FFFF"/>
        <path id="Path 4" d="M167.521 81.2014L163.379 83.7893" stroke="black" stroke-opacity="0.115767" stroke-width="0.315598"
              stroke-linecap="round"/>
        <path id="Path 4_2" d="M168.362 82.8004L164.221 85.3882" stroke="black" stroke-opacity="0.115767" stroke-width="0.315598"
              stroke-linecap="round"/>
        <path id="Path 4_3" d="M169.203 84.3994L165.062 86.9872" stroke="black" stroke-opacity="0.115767" stroke-width="0.315598"
              stroke-linecap="round"/>
        <path id="Path 4_4" d="M170.045 85.9983L165.903 88.5861" stroke="black" stroke-opacity="0.115767" stroke-width="0.315598"
              stroke-linecap="round"/>
      </g>
      <g id="Wom4.6">
        <g id="RLeg">
          <path id="Path_13" fill-rule="evenodd" clip-rule="evenodd"
                d="M200.412 152.498C200.412 152.498 200.378 154.441 200.378 155.067C200.378 155.546 200.398 156.965 200.345 157.183C200.27 157.49 200.194 158.243 200.194 158.243L204.271 158.351C204.271 158.351 203.241 156.348 203.181 156.083C203.121 155.818 202.665 152.498 202.665 152.498H200.412Z"
                fill="#FFE2E2"/>
          <path id="Path_14" fill-rule="evenodd" clip-rule="evenodd"
                d="M203.522 157.616C203.432 157.538 202.882 156.299 201.909 156.299C200.821 156.299 200.526 157.576 200.489 157.616C200.429 157.681 200.15 157.655 200.082 157.779C199.753 158.381 199.579 159.601 199.881 160.042C200.201 160.514 204.564 160.522 204.805 160.078C205.058 159.609 204.461 158.331 204.002 157.779C203.885 157.639 203.569 157.657 203.522 157.616Z"
                fill="#2E2E2E"/>
          <path id="Path_15" fill-rule="evenodd" clip-rule="evenodd"
                d="M190.154 98.1497L198.118 97.2815L198.235 97.3906C198.803 97.9329 201.27 100.452 201.979 103.894C203.317 110.393 201.526 122.397 201.565 125.029C201.603 127.662 202.844 129.25 203.359 132.971C203.875 136.693 203.923 153.326 203.923 153.326C202.557 154.138 201.354 154.196 199.725 153.277L190.154 98.1497Z"
                fill="#26553B"/>
          <path id="Path_16" fill-rule="evenodd" clip-rule="evenodd"
                d="M197.268 139.128L190.154 98.1496L194.582 97.6669C194.78 111.903 197.533 131.145 197.268 139.128Z" fill="white"
                fill-opacity="0.192499"/>
        </g>
        <g id="LLeg">
          <path id="Path_17" fill-rule="evenodd" clip-rule="evenodd"
                d="M191.786 152.348L188.888 152.39C188.888 152.39 189.06 155.115 188.054 156.038L184.262 158.088C183.965 158.337 183.793 159.111 184.401 159.221C186.283 159.562 191.673 158.752 191.673 158.752L191.786 152.348Z"
                fill="#FFE2E2"/>
          <path id="Path_18" fill-rule="evenodd" clip-rule="evenodd"
                d="M191.7 156.248C191.505 156.258 191.258 157.361 190.154 157.927C188.888 158.575 187.047 158.328 186.247 158.42C185.667 158.486 185.38 157.34 185.38 157.34C185.38 157.34 182.439 158.857 182.178 159.578C181.873 160.415 183.843 160.477 185.251 160.416C186.661 160.355 187.87 159.721 188.554 159.737C189.24 159.753 189.402 160.18 189.916 160.297C190.436 160.417 191.738 160.399 191.859 160.025C191.985 159.637 192.116 156.225 191.7 156.248Z"
                fill="#2E2E2E"/>
          <path id="Path_19" fill-rule="evenodd" clip-rule="evenodd"
                d="M186.203 98.713L195.147 98.4091L195.214 98.5332C195.647 99.3585 198.025 104.191 197.291 109.683C196.26 117.393 193.082 126.431 192.954 127.812C192.725 130.273 193.182 132.056 193.37 134.598C193.557 137.141 192.375 153.131 192.375 153.131C191.048 153.932 189.469 154.089 187.461 153.156C187.461 153.156 185.928 131.435 185.915 127.998C185.901 124.56 186.203 98.713 186.203 98.713Z"
                fill="#31694A"/>
          <path id="Path_20" fill-rule="evenodd" clip-rule="evenodd"
                d="M188.044 107.052L187.984 107.623C187.366 113.646 186.845 126.438 187.065 128.41L187.096 128.66C187.342 130.837 187.277 136.3 186.899 145.05L186.564 140.028C186.158 133.808 185.942 129.877 185.917 128.235L185.915 127.998C185.901 124.561 186.203 98.713 186.203 98.713L188.09 98.649C188.291 101.954 188.276 104.755 188.044 107.052Z"
                fill="white" fill-opacity="0.192499"/>
        </g>
        <g id="Head">
          <path id="Path_21" fill-rule="evenodd" clip-rule="evenodd"
                d="M189.614 70.1641C188.513 70.2848 188.591 72.2247 189.931 72.326C190.205 74.196 191.181 75.087 192.372 75.1901L192.305 78.0187L197.571 78.0156C197.571 78.0156 196.088 76.0174 196.162 73.2818C196.236 70.5462 196.113 67.9763 196.113 67.9763L189.292 68.099L189.614 70.1641Z"
                fill="url(#paint2_linear_215_12739)"/>
        </g>
        <g id="RArm">
          <path id="Path_22" fill-rule="evenodd" clip-rule="evenodd"
                d="M209.342 83.6338C209.342 83.6338 209.112 82.061 209.185 81.026C209.32 79.112 209.062 77.4974 209.48 77.2462C210.016 76.9241 210.349 79.9504 210.349 79.9504C210.349 79.9504 212.931 75.0081 213.569 75.6187C214.207 76.2292 213.155 78.6051 213.366 79.373C213.578 80.1408 211.469 83.8553 211.469 83.8553L207.669 93.6559L206.358 88.3269L209.342 83.6338Z"
                fill="#FFE2E2"/>
          <path id="Path_23" fill-rule="evenodd" clip-rule="evenodd"
                d="M198.028 85.6629C198.028 85.6629 202.664 92.9777 203.689 94.3963C204.763 95.884 206.66 96.5428 208.007 94.1694C208.253 93.7353 208.888 92.5223 208.888 92.5223C208.526 90.3429 207.79 88.5441 206.272 87.5404L205.602 88.5249C205.602 88.5249 202.524 82.8678 201.564 81.533C198.976 77.9333 195.033 81.1657 198.028 85.6629Z"
                fill="#88CEA7"/>
        </g>
        <g id="Body">
          <path id="Path_24" fill-rule="evenodd" clip-rule="evenodd"
                d="M188.232 78.5665C187.057 80.297 185.099 86.1701 184.988 87.4913C184.863 89.0154 186.493 91.4432 186.52 93.6495C186.543 95.8561 185.304 103.06 185.677 103.681C185.91 104.074 191.653 106.045 196.347 105.535C200.401 105.094 202.016 102.461 201.816 101.987C201.268 100.695 198.724 96.9231 198.983 95.1622C199.239 93.4016 200.727 86.9023 201.465 84.6902C202.201 82.4782 201.956 80.1558 200.583 79.204C199.903 78.733 198.09 77.395 194.861 77.4011C191.632 77.4073 188.323 78.4323 188.232 78.5665Z"
                fill="#6BCA95"/>
          <path id="Path_25" fill-rule="evenodd" clip-rule="evenodd"
                d="M186.527 82.3092L186.563 82.2909C188.739 81.2019 190.046 81.1538 190.484 82.1466C191.033 83.3923 189.666 86.8444 186.382 92.5029C185.986 90.6389 184.885 88.7546 184.988 87.4913C185.053 86.7267 185.735 84.4376 186.527 82.3092Z"
                fill="black" fill-opacity="0.159856"/>
        </g>
        <g id="LArm">
          <path id="Path_26" fill-rule="evenodd" clip-rule="evenodd"
                d="M169.249 92.6039C169.249 92.6039 165.998 92.7941 165.438 92.3321C164.877 91.8704 162.644 89.5708 162.888 89.0304C163.132 88.4902 165.728 89.6329 165.902 89.2893C166.125 88.8479 164.973 87.2733 165.982 87.1816C166.242 87.1579 166.426 88.1271 167.158 88.7654C167.89 89.4039 169.377 90.54 169.377 90.54L180.592 88.7654L181.639 92.3646L169.249 92.6039Z"
                fill="#FFE2E2"/>
          <path id="Path_27" fill-rule="evenodd" clip-rule="evenodd"
                d="M187.207 79.3416C184.639 81.7777 181.003 87.5302 180.228 88.037C180.058 88.1485 178.588 88.7369 178.588 88.7369C177.97 90.3866 179.015 92.2559 180.535 93.0562C180.535 93.0562 182.201 92.8135 182.593 92.6996C184.595 92.1184 188.098 86.8199 189.554 85.1287C193.557 80.4788 189.775 76.9057 187.207 79.3416Z"
                fill="#88CEA7"/>
        </g>
        <path id="Path_28" fill-rule="evenodd" clip-rule="evenodd"
              d="M202.51 77.8117C199.815 73.5097 199.241 68.0322 197.331 66.1937C195.814 64.7343 193.407 65.1391 193.407 65.1391C193.407 65.1391 191.322 63.3856 189.277 65.1391C187.233 66.8926 187.2 72.9906 188.622 76.8233C190.043 80.6559 191.535 85.0923 197.127 85.0923C200.261 85.0923 205.553 82.6707 202.51 77.8117Z"
              fill="#28211D"/>
      </g>
      <g id="Group 28">
        <path id="Rectangle_22" fill-rule="evenodd" clip-rule="evenodd"
              d="M202.439 48.648C202.439 46.9486 203.817 45.5709 205.516 45.5709H216.9C218.6 45.5709 219.977 46.9486 219.977 48.648V63.3714C219.977 65.0709 218.6 66.4485 216.9 66.4485H205.516C203.817 66.4485 202.439 65.0709 202.439 63.3714V48.648Z"
              fill="#30619A"/>
        <path id="Rectangle_23" fill-rule="evenodd" clip-rule="evenodd"
              d="M203.901 49.0874C203.901 47.9544 204.819 47.036 205.952 47.036H216.464C217.597 47.036 218.516 47.9544 218.516 49.0874V62.932C218.516 64.065 217.597 64.9834 216.464 64.9834H205.952C204.819 64.9834 203.901 64.065 203.901 62.932V49.0874Z"
              fill="white"/>
        <g id="Group 29">
          <ellipse id="Oval_8" cx="219.064" cy="64.0677" rx="4.56724" ry="4.57842" fill="#65B3A1"/>
          <path id="Path_29" fill-rule="evenodd" clip-rule="evenodd"
                d="M220.299 62.616C220.426 62.3979 220.706 62.3248 220.924 62.4528C221.127 62.5722 221.204 62.8246 221.109 63.035L221.087 63.0794L219.555 65.6953C219.522 65.7514 219.483 65.8034 219.438 65.8502C219.138 66.1623 218.652 66.1859 218.324 65.9145L218.276 65.8716L217.1 64.7359C216.919 64.5604 216.913 64.2706 217.088 64.0885C217.252 63.9186 217.514 63.9026 217.696 64.0439L217.734 64.0766L218.826 65.1316L220.299 62.616Z"
                fill="white"/>
        </g>
        <path id="Rectangle_24" opacity="0.33996"
              d="M206.093 51.4313C206.093 51.229 206.257 51.065 206.459 51.065H215.957C216.159 51.065 216.323 51.229 216.323 51.4313C216.323 51.6336 216.159 51.7976 215.957 51.7976H206.459C206.257 51.7976 206.093 51.6336 206.093 51.4313Z"
              fill="#467FFF"/>
        <path id="Rectangle_25" opacity="0.33996"
              d="M206.093 54.3615C206.093 54.1592 206.257 53.9952 206.459 53.9952H215.957C216.159 53.9952 216.323 54.1592 216.323 54.3615C216.323 54.5638 216.159 54.7278 215.957 54.7278H206.459C206.257 54.7278 206.093 54.5638 206.093 54.3615Z"
              fill="#467FFF"/>
        <path id="Rectangle_26" opacity="0.33996"
              d="M206.093 57.2917C206.093 57.0894 206.257 56.9254 206.459 56.9254H215.957C216.159 56.9254 216.323 57.0894 216.323 57.2917C216.323 57.494 216.159 57.658 215.957 57.658H206.459C206.257 57.658 206.093 57.494 206.093 57.2917Z"
              fill="#467FFF"/>
        <rect id="Rectangle_27" x="206.458" y="44.4721" width="9.49985" height="4.02901" rx="2.01451" fill="#30619A"/>
      </g>
      <g id="Icon17">
        <circle id="Oval_9" cx="129.52" cy="91.6623" r="5.16936" fill="#30619A"/>
        <path id="Path_30"
              d="M128.978 88.7892C128.992 88.6765 129.089 88.5945 129.2 88.5972L129.223 88.5989L131.646 88.9036C131.758 88.9186 131.84 89.0164 131.836 89.1276L131.834 89.15L131.518 91.5396C131.51 91.5966 131.481 91.6483 131.435 91.6837C131.346 91.7539 131.218 91.7431 131.141 91.6619L131.127 91.6459L130.694 91.0917L128.425 92.8454C128.335 92.9149 128.208 92.9037 128.132 92.8228L128.118 92.8068L127.759 92.3473L127.543 94.3168L129.481 94.5519L129.132 94.1044C129.062 94.0145 129.072 93.887 129.154 93.8101L129.17 93.7963L130.764 92.5503C130.846 92.4869 130.963 92.5013 131.026 92.5825C131.086 92.6586 131.077 92.7665 131.009 92.8319L130.994 92.8444L129.52 93.9958L130.004 94.6142C130.074 94.704 130.063 94.8315 129.982 94.9084L129.966 94.9222C129.926 94.9535 129.876 94.9698 129.826 94.9687L129.804 94.9671L127.347 94.669C127.235 94.6554 127.153 94.5598 127.154 94.4495L127.156 94.4272L127.429 91.9305C127.442 91.8101 127.551 91.7231 127.671 91.7363C127.723 91.742 127.77 91.7656 127.806 91.8026L127.82 91.8193L128.318 92.4565L130.587 90.7028C130.677 90.6333 130.804 90.6445 130.881 90.7254L130.894 90.7414L131.196 91.1275L131.444 89.2544L129.546 89.0157L129.879 89.4418C129.949 89.5317 129.938 89.6591 129.857 89.736L129.841 89.7498L128.275 90.9736C128.194 91.0371 128.076 91.0227 128.013 90.9414C127.953 90.8653 127.962 90.7575 128.031 90.692L128.045 90.6795L129.49 89.5504L129.022 88.9517C128.991 88.9114 128.975 88.8616 128.976 88.811L128.978 88.7892Z"
              fill="white"/>
      </g>
    </g>
  </g>
  <defs>
    <filter id="filter0_d_215_12739" x="74.0918" y="26.9741" width="91.2036" height="68.9456" filterUnits="userSpaceOnUse"
            color-interpolation-filters="sRGB">
      <feFlood flood-opacity="0" result="BackgroundImageFix"/>
      <feColorMatrix in="SourceAlpha" type="matrix" values="0 0 0 0 0 0 0 0 0 0 0 0 0 0 0 0 0 0 127 0" result="hardAlpha"/>
      <feOffset dy="2"/>
      <feGaussianBlur stdDeviation="5"/>
      <feColorMatrix type="matrix" values="0 0 0 0 0.333333 0 0 0 0 0.611765 0 0 0 0 0.545098 0 0 0 0.2 0"/>
      <feBlend mode="normal" in2="BackgroundImageFix" result="effect1_dropShadow_215_12739"/>
      <feBlend mode="normal" in="SourceGraphic" in2="effect1_dropShadow_215_12739" result="shape"/>
    </filter>
    <filter id="filter1_d_215_12739" x="168.519" y="28.5633" width="50.1151" height="59.0489" filterUnits="userSpaceOnUse"
            color-interpolation-filters="sRGB">
      <feFlood flood-opacity="0" result="BackgroundImageFix"/>
      <feColorMatrix in="SourceAlpha" type="matrix" values="0 0 0 0 0 0 0 0 0 0 0 0 0 0 0 0 0 0 127 0" result="hardAlpha"/>
      <feOffset dx="3.15598" dy="3.55048"/>
      <feGaussianBlur stdDeviation="4.14223"/>
      <feColorMatrix type="matrix" values="0 0 0 0 0.276721 0 0 0 0 0.276721 0 0 0 0 0.276721 0 0 0 0.208725 0"/>
      <feBlend mode="normal" in2="BackgroundImageFix" result="effect1_dropShadow_215_12739"/>
      <feBlend mode="normal" in="SourceGraphic" in2="effect1_dropShadow_215_12739" result="shape"/>
    </filter>
    <filter id="filter2_d_215_12739" x="173.985" y="32.2841" width="32.9133" height="33.1843" filterUnits="userSpaceOnUse"
            color-interpolation-filters="sRGB">
      <feFlood flood-opacity="0" result="BackgroundImageFix"/>
      <feColorMatrix in="SourceAlpha" type="matrix" values="0 0 0 0 0 0 0 0 0 0 0 0 0 0 0 0 0 0 127 0" result="hardAlpha"/>
      <feOffset dy="2"/>
      <feGaussianBlur stdDeviation="5"/>
      <feColorMatrix type="matrix" values="0 0 0 0 0.188235 0 0 0 0 0.380392 0 0 0 0 0.603922 0 0 0 0.2 0"/>
      <feBlend mode="normal" in2="BackgroundImageFix" result="effect1_dropShadow_215_12739"/>
      <feBlend mode="normal" in="SourceGraphic" in2="effect1_dropShadow_215_12739" result="shape"/>
    </filter>
    <filter id="filter3_d_215_12739" x="80.4412" y="86.0498" width="58.1978" height="30.0186" filterUnits="userSpaceOnUse"
            color-interpolation-filters="sRGB">
      <feFlood flood-opacity="0" result="BackgroundImageFix"/>
      <feColorMatrix in="SourceAlpha" type="matrix" values="0 0 0 0 0 0 0 0 0 0 0 0 0 0 0 0 0 0 127 0" result="hardAlpha"/>
      <feOffset dx="2.36699" dy="2.76149"/>
      <feGaussianBlur stdDeviation="3.35323"/>
      <feColorMatrix type="matrix" values="0 0 0 0 0.561707 0 0 0 0 0.561707 0 0 0 0 0.561707 0 0 0 0.208725 0"/>
      <feBlend mode="normal" in2="BackgroundImageFix" result="effect1_dropShadow_215_12739"/>
      <feBlend mode="normal" in="SourceGraphic" in2="effect1_dropShadow_215_12739" result="shape"/>
    </filter>
    <filter id="filter4_d_215_12739" x="81.6247" y="109.6" width="55.0419" height="26.8626" filterUnits="userSpaceOnUse"
            color-interpolation-filters="sRGB">
      <feFlood flood-opacity="0" result="BackgroundImageFix"/>
      <feColorMatrix in="SourceAlpha" type="matrix" values="0 0 0 0 0 0 0 0 0 0 0 0 0 0 0 0 0 0 127 0" result="hardAlpha"/>
      <feOffset dx="1.97249" dy="1.97249"/>
      <feGaussianBlur stdDeviation="2.56424"/>
      <feColorMatrix type="matrix" values="0 0 0 0 0.649655 0 0 0 0 0.649655 0 0 0 0 0.649655 0 0 0 0.208725 0"/>
      <feBlend mode="normal" in2="BackgroundImageFix" result="effect1_dropShadow_215_12739"/>
      <feBlend mode="normal" in="SourceGraphic" in2="effect1_dropShadow_215_12739" result="shape"/>
    </filter>
    <linearGradient id="paint0_linear_215_12739" x1="116.463" y1="107.465" x2="161.337" y2="45.7714" gradientUnits="userSpaceOnUse">
      <stop stop-color="#559C8B"/>
      <stop offset="1" stop-color="#68B7A4"/>
    </linearGradient>
    <linearGradient id="paint1_linear_215_12739" x1="118.597" y1="125.518" x2="122.371" y2="117.557" gradientUnits="userSpaceOnUse">
      <stop stop-color="#559C8B"/>
      <stop offset="1" stop-color="#68B7A4"/>
    </linearGradient>
    <linearGradient id="paint2_linear_215_12739" x1="186.466" y1="65.5317" x2="187.354" y2="79.5109" gradientUnits="userSpaceOnUse">
      <stop stop-color="#FDC6C6"/>
      <stop offset="1" stop-color="#A47070"/>
    </linearGradient>
  </defs>
</svg>
