<svg fill="none" height="26" viewBox="0 0 89 26" width="89" xmlns="http://www.w3.org/2000/svg">
  <path
    d="M12.9607 20.1104L11.6355 16.1202H4.52389L3.11039 20.1104H0.150879L7.95456 0.93988H8.64659L15.8908 20.1104H12.9607ZM8.20487 5.90184L5.24536 14.2209H10.9582L8.20487 5.90184ZM20.6171 19.5068V25.5877H17.9816V6.68221H20.6171V7.80123C21.5742 6.90307 22.8846 6.41718 24.2539 6.43191C26.1239 6.32884 27.9349 6.99141 29.2012 8.24295C30.4822 9.74479 31.1153 11.6147 30.9681 13.5141C31.0564 15.3399 30.4233 17.1362 29.1865 18.5644C27.9055 19.919 25.9914 20.6405 24.0331 20.5227C23.3411 20.5227 22.6638 20.4196 22.0012 20.2135C21.4711 20.1104 20.9852 19.8601 20.6171 19.5068ZM20.6171 9.59755V17.5043C20.8969 17.7988 21.2503 18.0344 21.6625 18.1522C22.1484 18.3583 22.6932 18.4614 23.2233 18.4614C26.5214 18.4614 28.1558 16.7681 28.1558 13.3963C28.2883 12.0417 27.876 10.6871 26.9926 9.59755C25.9914 8.72884 24.6368 8.28712 23.2527 8.40491C22.7668 8.43436 22.3104 8.55215 21.8834 8.75828C21.4122 8.9497 20.9705 9.22945 20.6024 9.55338L20.6171 9.59755ZM33.265 8.28712H31.6748V6.29939H33.2797V3.31043L35.7239 2.30921V6.29939H39.5227V8.28712H35.7533V15.3546C35.6797 16.2528 35.8858 17.1509 36.3423 17.9018C36.8282 18.4614 37.5497 18.7411 38.2858 18.6528C38.9631 18.638 39.6257 18.4761 40.2294 18.1669L40.5828 20.3755C39.4932 20.6552 38.3595 20.7877 37.2405 20.773C36.1803 20.7877 35.1644 20.3313 34.4724 19.5215C33.7067 18.6528 33.2944 17.519 33.3386 16.3558L33.265 8.28712ZM50.3153 18.9325C49.211 20.2282 47.5619 20.9055 45.8834 20.773C44.838 20.7877 43.8368 20.3607 43.1153 19.5951C42.3497 18.8295 41.9227 17.7841 41.9374 16.6945C41.9374 15.281 42.6147 13.9558 43.7484 13.1313C45.0736 12.1153 46.7079 11.6147 48.357 11.6736C48.946 11.6883 49.5349 11.7914 50.0797 11.9975C50.0797 9.75951 49.0932 8.64049 47.1349 8.64049C45.8539 8.53743 44.6024 8.97914 43.6601 9.84786L42.6441 7.78651C43.2184 7.34479 43.8662 7.02086 44.5582 6.81473C45.3092 6.5497 46.0895 6.41718 46.8699 6.40246C48.4306 6.25522 49.9766 6.75583 51.1693 7.77178C52.1705 8.99387 52.6564 10.5546 52.5092 12.1301V17.092C52.3766 18.0344 52.8036 18.9767 53.584 19.5215V20.7583C52.8184 20.8025 52.0674 20.6552 51.3754 20.3313C50.8601 20.0368 50.492 19.5362 50.3153 18.9325ZM50.0944 13.735C49.5791 13.6025 49.0343 13.5141 48.5043 13.4847C47.4294 13.4405 46.3693 13.7939 45.5153 14.4564C44.7938 14.9865 44.3668 15.8258 44.3668 16.7239C44.3668 18.1522 45.1914 18.8736 46.8699 18.8736C48.1656 18.8295 49.3582 18.1816 50.1092 17.1068V13.735H50.0944ZM63.5227 9.14111C63.0662 8.78773 62.5067 8.59632 61.9325 8.5816C61.049 8.61105 60.2098 9.05276 59.6944 9.80368C59.0466 10.6429 58.7079 11.6883 58.7374 12.7632V20.8025H56.3227V6.68221H58.7374V8.93497C59.4441 7.37424 60.9754 6.38773 62.6392 6.41718C63.2871 6.4319 63.9202 6.52025 64.5386 6.65276L63.5227 9.14111Z"
    fill="#474747"/>
  <path
    d="M78.0405 15.1927C77.3926 15.1927 77.3779 15.0454 78.0405 14.8687L87.4049 12.3362C88.0528 12.1154 88.4798 11.5411 88.5092 10.8933V2.9129C88.5092 2.29449 88.1117 2.10308 87.5963 2.51535L66.2172 20.0663C65.7166 20.4785 65.8491 20.8025 66.4969 20.8025H87.3166C87.6258 20.8025 87.935 20.6847 88.1558 20.4638C88.3767 20.2577 88.5092 19.9632 88.5092 19.6687V16.4589C88.4798 15.8405 87.9644 15.3546 87.3313 15.3399L78.0405 15.1927Z"
    fill="#559C8B"/>
</svg>
